<?xml version="1.0" encoding="utf-8"?>
<!-- Generator: Adobe Illustrator 15.1.0, SVG Export Plug-In . SVG Version: 6.00 Build 0)  -->
<!DOCTYPE svg PUBLIC "-//W3C//DTD SVG 1.1//EN" "http://www.w3.org/Graphics/SVG/1.1/DTD/svg11.dtd">
<svg version="1.1" xmlns="http://www.w3.org/2000/svg" xmlns:xlink="http://www.w3.org/1999/xlink" x="0px" y="0px" width="612px"
	 height="792px" viewBox="0 0 612 792" enable-background="new 0 0 612 792" xml:space="preserve">
<g id="image_-_remove">
	<g id="Layer_1">
		<linearGradient id="SVGID_1_" gradientUnits="userSpaceOnUse" x1="255.9819" y1="297" x2="255.9819" y2="381.1895">
			<stop  offset="0" style="stop-color:#231F20"/>
			<stop  offset="0.0761" style="stop-color:#203130"/>
			<stop  offset="0.2326" style="stop-color:#1B4F4C"/>
			<stop  offset="0.3974" style="stop-color:#176762"/>
			<stop  offset="0.5719" style="stop-color:#147872"/>
			<stop  offset="0.7625" style="stop-color:#13827B"/>
			<stop  offset="1" style="stop-color:#12857E"/>
		</linearGradient>
		<rect x="213.793" y="297" fill="url(#SVGID_1_)" width="84.376" height="84.189"/>
	</g>
</g>
<g id="workingcurve">
	<g id="background">
		<linearGradient id="SVGID_2_" gradientUnits="userSpaceOnUse" x1="255.9819" y1="297" x2="255.9819" y2="381.1895">
			<stop  offset="0" style="stop-color:#231F20"/>
			<stop  offset="0.0543" style="stop-color:#203332"/>
			<stop  offset="0.1531" style="stop-color:#1B504E"/>
			<stop  offset="0.2579" style="stop-color:#176863"/>
			<stop  offset="0.3698" style="stop-color:#147872"/>
			<stop  offset="0.494" style="stop-color:#13827B"/>
			<stop  offset="0.6545" style="stop-color:#12857E"/>
		</linearGradient>
		<rect x="213.793" y="297" fill="url(#SVGID_2_)" width="84.376" height="84.189"/>
	</g>
	<g id="dipscape">
		<g>
			<text transform="matrix(0.9994 -0.0349 0.0349 0.9994 227.1484 356.957)" fill="#F1F1F2" font-family="'BellMT'" font-size="72">D</text>
		</g>
	</g>
	<g>
		<path fill="#231F20" d="M298.17,381.189v-26.327c-12.645-4.505-26.789-7.029-41.722-7.029c-15.301,0-29.775,2.65-42.654,7.366
			v25.99H298.17z"/>
		<path fill="#FFFFFF" d="M213.718,355.806L213.718,355.806l0.5-0.284c13.201-4.788,27.382-7.216,42.154-7.216
			c14.412,0,28.279,2.315,41.222,6.882l0.236,0.144l0.288,0.125l0.009-0.125l0.046-0.999l0.088,0.031
			c-0.055-0.02-0.109-0.039-0.164-0.059c-13.099-4.645-27.137-7-41.726-7c-14.948,0-29.298,2.467-42.655,7.333"/>
	</g>
</g>
</svg>
